<?xml version="1.0" encoding="utf-8"?>
<!-- Generator: Adobe Illustrator 24.2.1, SVG Export Plug-In . SVG Version: 6.00 Build 0)  -->
<svg version="1.1" id="Layer_1" xmlns="http://www.w3.org/2000/svg" xmlns:xlink="http://www.w3.org/1999/xlink" x="0px" y="0px"
	 viewBox="0 0 800 500" style="enable-background:new 0 0 800 500;" xml:space="preserve">
<style type="text/css">
	.st0{fill:#FFFFFF;}
	.st1{fill:#EA4335;}
	.st2{fill:#FBBC05;}
	.st3{fill:#4285F4;}
	.st4{fill:#34A853;}
</style>
<rect class="st0" width="800" height="500"/>
<g>
	<path class="st1" d="M361.9,254.6c0,25-19.6,43.5-43.6,43.5s-43.6-18.5-43.6-43.5c0-25.2,19.6-43.5,43.6-43.5
		S361.9,229.4,361.9,254.6z M342.8,254.6c0-15.6-11.4-26.4-24.5-26.4s-24.5,10.7-24.5,26.4c0,15.5,11.4,26.4,24.5,26.4
		S342.8,270,342.8,254.6z"/>
	<path class="st2" d="M456,254.6c0,25-19.6,43.5-43.6,43.5s-43.6-18.5-43.6-43.5c0-25.2,19.6-43.5,43.6-43.5S456,229.4,456,254.6z
		 M436.9,254.6c0-15.6-11.4-26.4-24.5-26.4s-24.5,10.7-24.5,26.4c0,15.5,11.4,26.4,24.5,26.4S436.9,270,436.9,254.6z"/>
	<path class="st3" d="M546.2,213.7v78.1c0,32.1-18.9,45.2-41.3,45.2c-21.1,0-33.8-14.1-38.5-25.6l16.6-6.9
		c3,7.1,10.2,15.4,21.9,15.4c14.3,0,23.2-8.8,23.2-25.5v-6.3h-0.7c-4.3,5.3-12.5,9.9-22.9,9.9c-21.7,0-41.7-18.9-41.7-43.3
		c0-24.5,19.9-43.6,41.7-43.6c10.4,0,18.6,4.6,22.9,9.7h0.7v-7.1L546.2,213.7L546.2,213.7z M529.4,254.7c0-15.3-10.2-26.5-23.2-26.5
		c-13.2,0-24.2,11.2-24.2,26.5c0,15.2,11,26.2,24.2,26.2C519.2,280.9,529.4,269.9,529.4,254.7z"/>
	<path class="st4" d="M576.1,167.9v127.5h-18.6V167.9H576.1z"/>
	<path class="st1" d="M648.7,268.9l14.8,9.9c-4.8,7.1-16.3,19.3-36.2,19.3c-24.7,0-43.2-19.1-43.2-43.5c0-25.9,18.6-43.5,41-43.5
		c22.6,0,33.6,18,37.2,27.7l2,4.9l-58.1,24.1c4.5,8.7,11.4,13.2,21.1,13.2C637,280.9,643.8,276.1,648.7,268.9L648.7,268.9z
		 M603.1,253.2l38.9-16.1c-2.1-5.4-8.6-9.2-16.1-9.2C616.1,227.9,602.6,236.5,603.1,253.2z"/>
	<path class="st3" d="M204.1,243.3v-18.5h62.2c0.6,3.2,0.9,7,0.9,11.1c0,13.8-3.8,31-16,43.2c-11.9,12.4-27,18.9-47.1,18.9
		c-37.2,0-68.5-30.3-68.5-67.5s31.3-67.5,68.5-67.5c20.6,0,35.3,8.1,46.3,18.6l-13,13c-7.9-7.4-18.6-13.2-33.3-13.2
		c-27.2,0-48.4,21.9-48.4,49.1s21.3,49.1,48.4,49.1c17.6,0,27.7-7.1,34.1-13.5c5.2-5.2,8.6-12.7,10-22.8L204.1,243.3z"/>
</g>
</svg>
