<?xml version="1.0" encoding="utf-8"?>
<!-- Generator: Adobe Illustrator 24.2.1, SVG Export Plug-In . SVG Version: 6.00 Build 0)  -->
<svg version="1.1" id="Layer_1" xmlns="http://www.w3.org/2000/svg" xmlns:xlink="http://www.w3.org/1999/xlink" x="0px" y="0px"
	 viewBox="0 0 800 500" style="enable-background:new 0 0 800 500;" xml:space="preserve">
<style type="text/css">
	.st0{fill:none;}
	.st1{clip-path:url(#SVGID_2_);}
	.st2{fill:url(#Fill_1_1_);}
	.st3{clip-path:url(#SVGID_4_);}
	.st4{fill:url(#Fill_4_1_);}
	.st5{clip-path:url(#SVGID_6_);}
	.st6{fill:url(#Fill_7_1_);}
	.st7{clip-path:url(#SVGID_8_);}
	.st8{fill:url(#Fill_10_1_);}
	.st9{clip-path:url(#SVGID_10_);}
	.st10{fill:url(#Fill_13_1_);}
	.st11{clip-path:url(#SVGID_12_);}
	.st12{fill:url(#Fill_16_1_);}
	.st13{clip-path:url(#SVGID_14_);}
	.st14{fill:url(#Fill_19_1_);}
	.st15{clip-path:url(#SVGID_16_);}
	.st16{fill:url(#Fill_22_1_);}
	.st17{clip-path:url(#SVGID_18_);}
	.st18{fill:url(#Fill_25_1_);}
	.st19{clip-path:url(#SVGID_20_);}
	.st20{fill:url(#Fill_28_1_);}
	.st21{clip-path:url(#SVGID_22_);}
	.st22{fill:url(#Fill_31_1_);}
	.st23{clip-path:url(#SVGID_24_);}
	.st24{fill:url(#Fill_34_1_);}
	.st25{fill-rule:evenodd;clip-rule:evenodd;fill:#4584E3;}
	.st26{fill-rule:evenodd;clip-rule:evenodd;fill:#64D1FF;}
	.st27{fill-rule:evenodd;clip-rule:evenodd;fill:#F45197;}
	.st28{fill-rule:evenodd;clip-rule:evenodd;fill:#E44E38;}
	.st29{fill-rule:evenodd;clip-rule:evenodd;fill:#F44E5F;}
	.st30{fill-rule:evenodd;clip-rule:evenodd;fill:#EB0045;}
	.st31{fill-rule:evenodd;clip-rule:evenodd;fill:#D15845;}
	.st32{fill-rule:evenodd;clip-rule:evenodd;fill:#5497E1;}
	.st33{fill-rule:evenodd;clip-rule:evenodd;fill:#B09DC0;}
	.st34{fill-rule:evenodd;clip-rule:evenodd;fill:#D9D9D9;}
	.st35{display:none;fill:#05033C;}
	.st36{fill:#111C4E;}
	.st37{fill-rule:evenodd;clip-rule:evenodd;fill:#3BD4AE;}
	.st38{fill-rule:evenodd;clip-rule:evenodd;fill:#785B95;}
	.st39{fill-rule:evenodd;clip-rule:evenodd;fill:#533278;}
	.st40{fill-rule:evenodd;clip-rule:evenodd;fill:#FFC56D;}
	.st41{fill-rule:evenodd;clip-rule:evenodd;fill:#CA735E;}
	.st42{fill-rule:evenodd;clip-rule:evenodd;fill:#CF8B66;}
	.st43{fill-rule:evenodd;clip-rule:evenodd;fill:#B19677;}
	.st44{fill-rule:evenodd;clip-rule:evenodd;fill:#B17857;}
	.st45{fill-rule:evenodd;clip-rule:evenodd;fill:#975242;}
	.st46{fill-rule:evenodd;clip-rule:evenodd;fill:#A28B6E;}
	.st47{fill-rule:evenodd;clip-rule:evenodd;fill:#3A8DDE;}
	.st48{fill-rule:evenodd;clip-rule:evenodd;fill:#2062B9;}
	.st49{fill-rule:evenodd;clip-rule:evenodd;fill:#0E559C;}
	.st50{fill-rule:evenodd;clip-rule:evenodd;fill:#5492F0;}
	.st51{fill-rule:evenodd;clip-rule:evenodd;fill:#5A61B4;}
	.st52{fill-rule:evenodd;clip-rule:evenodd;fill:#7EABE7;}
	.st53{fill:#FFFFFF;}
	.st54{fill-rule:evenodd;clip-rule:evenodd;fill:#5A3966;}
</style>
<g id="Mask" transform="translate(-0.158 -0.521)">
	<g id="Group_3" transform="translate(1)">
		<path id="Clip_2-2" class="st0" d="M-310.1,0.7c-3.6,0-6.6,3-6.6,6.6l0,0v486.5c0.1,3.6,3,6.5,6.6,6.5h1418.9c3.6,0,6.6-3,6.6-6.6
			l0,0V7.3c0-3.6-3-6.6-6.6-6.6H-310.1z"/>
		<g>
			<defs>
				<path id="SVGID_1_" d="M-310.1,0.7c-3.6,0-6.6,3-6.6,6.6l0,0v486.5c0.1,3.6,3,6.5,6.6,6.5h1418.9c3.6,0,6.6-3,6.6-6.6l0,0V7.3
					c0-3.6-3-6.6-6.6-6.6H-310.1z"/>
			</defs>
			<clipPath id="SVGID_2_">
				<use xlink:href="#SVGID_1_"  style="overflow:visible;"/>
			</clipPath>
			<g id="Group_3-2" class="st1">
				
					<linearGradient id="Fill_1_1_" gradientUnits="userSpaceOnUse" x1="-0.9266" y1="500.5548" x2="-0.5679" y2="500.0226" gradientTransform="matrix(3170.3088 0 0 -1106.072 2673.5591 553556.8125)">
					<stop  offset="0" style="stop-color:#89BCFF"/>
					<stop  offset="1" style="stop-color:#1F00FF"/>
				</linearGradient>
				<path id="Fill_1" class="st2" d="M-310.1,0.7c-3.6,0-6.6,3-6.6,6.6l0,0v486.5c0.1,3.6,3,6.5,6.6,6.5h1418.9c3.6,0,6.6-3,6.6-6.6
					l0,0V7.3c0-3.6-3-6.6-6.6-6.6H-310.1z"/>
			</g>
		</g>
	</g>
	<g id="Group_6" transform="translate(1)">
		<path id="Clip_5-2" class="st0" d="M-310.1,0.7c-3.6,0-6.6,3-6.6,6.6l0,0v486.4c0,3.6,3,6.6,6.6,6.6h569.2
			c14.3-70.7,15.4-150.6-34.1-201.5l0,0c-37.2-38.3-94.8-50.5-133.7-87.1l0,0C34.1,158,31.3,67.4-8.9,0.7H-310.1z"/>
		<g>
			<defs>
				<path id="SVGID_3_" d="M-310.1,0.7c-3.6,0-6.6,3-6.6,6.6l0,0v486.4c0,3.6,3,6.6,6.6,6.6h569.2c14.3-70.7,15.4-150.6-34.1-201.5
					l0,0c-37.2-38.3-94.8-50.5-133.7-87.1l0,0C34.1,158,31.3,67.4-8.9,0.7H-310.1z"/>
			</defs>
			<clipPath id="SVGID_4_">
				<use xlink:href="#SVGID_3_"  style="overflow:visible;"/>
			</clipPath>
			<g id="Group_6-2" class="st3">
				
					<linearGradient id="Fill_4_1_" gradientUnits="userSpaceOnUse" x1="-0.9512" y1="500.1302" x2="-0.761" y2="500.385" gradientTransform="matrix(1293.7391 0 0 -1106.072 1093.4863 553556.8125)">
					<stop  offset="0" style="stop-color:#0031FF"/>
					<stop  offset="1" style="stop-color:#CF4DFF"/>
				</linearGradient>
				<path id="Fill_4" class="st4" d="M-310.1,0.7c-3.6,0-6.6,3-6.6,6.6l0,0v486.4c0,3.6,3,6.6,6.6,6.6h569.2
					c14.3-70.7,15.4-150.6-34.1-201.5l0,0c-37.2-38.3-94.8-50.5-133.7-87.1l0,0C34.1,158,31.3,67.4-8.9,0.7H-310.1z"/>
			</g>
		</g>
	</g>
	<g id="Group_9" transform="translate(958)">
		<path id="Clip_8-2" class="st0" d="M-841.2,0.7c36.5,43.5,61.5,98.6,89.9,148.8l0,0c39.9,70.7,101.7,142.1,182.8,142.8l0,0
			c74.6,0.7,135.1-58.6,205.8-82.3l0,0c73.4-24.6,150.7-9.4,228.3,5.8l0,0c70.7,13.8,141.6,27.6,210.2,11.5l0,0
			c29.7-7,57.8-20,82.7-37.5l0,0V7.3c0-3.6-3-6.6-6.6-6.6H-841.2z"/>
		<g>
			<defs>
				<path id="SVGID_5_" d="M-841.2,0.7c36.5,43.5,61.5,98.6,89.9,148.8l0,0c39.9,70.7,101.7,142.1,182.8,142.8l0,0
					c74.6,0.7,135.1-58.6,205.8-82.3l0,0c73.4-24.6,150.7-9.4,228.3,5.8l0,0c70.7,13.8,141.6,27.6,210.2,11.5l0,0
					c29.7-7,57.8-20,82.7-37.5l0,0V7.3c0-3.6-3-6.6-6.6-6.6H-841.2z"/>
			</defs>
			<clipPath id="SVGID_6_">
				<use xlink:href="#SVGID_5_"  style="overflow:visible;"/>
			</clipPath>
			<g id="Group_9-2" class="st5">
				
					<linearGradient id="Fill_7_1_" gradientUnits="userSpaceOnUse" x1="-957.994" y1="500.2966" x2="-958.1011" y2="500.0621" gradientTransform="matrix(2213.062 0 0 -645.6694 2119768.25 323115.5938)">
					<stop  offset="0" style="stop-color:#33FFCC"/>
					<stop  offset="1" style="stop-color:#3F4FFF"/>
				</linearGradient>
				<path id="Fill_7" class="st6" d="M-841.2,0.7c36.5,43.5,61.5,98.6,89.9,148.8l0,0c39.9,70.7,101.7,142.1,182.8,142.8l0,0
					c74.6,0.7,135.1-58.6,205.8-82.3l0,0c73.4-24.6,150.7-9.4,228.3,5.8l0,0c70.7,13.8,141.6,27.6,210.2,11.5l0,0
					c29.7-7,57.8-20,82.7-37.5l0,0V7.3c0-3.6-3-6.6-6.6-6.6H-841.2z"/>
			</g>
		</g>
	</g>
	<g id="Group_12" transform="translate(512 423)">
		<path id="Clip_11-2" class="st0" d="M15.7-229.2c-63.2,11.9-104.5,72.1-160.3,104l0,0c-57.9,33-125.9,33.2-194.1,33.3l0,0
			c-62.1,0.2-124.4,0.4-179.7,25.5l0,0c-30.8,14-57.7,35.9-78.5,62.7l0,0l16,81h820.2l223.3-44.2h0c-6.2-2.5-12.5-4.7-18.9-6.5l0,0
			c-32.3-9.3-66.4-12.1-97.6-24.6l0,0C281.3-24,239.8-86.1,194.2-139.1l0,0c-40.6-47.3-96.1-92.1-156.3-92.1l0,0
			C30.5-231.2,23-230.5,15.7-229.2"/>
		<g>
			<defs>
				<path id="SVGID_7_" d="M15.7-229.2c-63.2,11.9-104.5,72.1-160.3,104l0,0c-57.9,33-125.9,33.2-194.1,33.3l0,0
					c-62.1,0.2-124.4,0.4-179.7,25.5l0,0c-30.8,14-57.7,35.9-78.5,62.7l0,0l16,81h820.2l223.3-44.2h0c-6.2-2.5-12.5-4.7-18.9-6.5
					l0,0c-32.3-9.3-66.4-12.1-97.6-24.6l0,0C281.3-24,239.8-86.1,194.2-139.1l0,0c-40.6-47.3-96.1-92.1-156.3-92.1l0,0
					C30.5-231.2,23-230.5,15.7-229.2"/>
			</defs>
			<clipPath id="SVGID_8_">
				<use xlink:href="#SVGID_7_"  style="overflow:visible;"/>
			</clipPath>
			<g id="Group_12-2" class="st7">
				
					<linearGradient id="Fill_10_1_" gradientUnits="userSpaceOnUse" x1="-511.8723" y1="77.7782" x2="-511.8723" y2="77.3265" gradientTransform="matrix(2345.6719 0 0 -683.116 1200617.5 52900.3164)">
					<stop  offset="0" style="stop-color:#34FFCC"/>
					<stop  offset="1" style="stop-color:#3E4FFF"/>
				</linearGradient>
				<path id="Fill_10" class="st8" d="M15.7-229.2c-63.2,11.9-104.5,72.1-160.3,104l0,0c-57.9,33-125.9,33.2-194.1,33.3l0,0
					c-62.1,0.2-124.4,0.4-179.7,25.5l0,0c-30.8,14-57.7,35.9-78.5,62.7l0,0l16,81h820.2l223.3-44.2h0c-6.2-2.5-12.5-4.7-18.9-6.5
					l0,0c-32.3-9.3-66.4-12.1-97.6-24.6l0,0C281.3-24,239.8-86.1,194.2-139.1l0,0c-40.6-47.3-96.1-92.1-156.3-92.1l0,0
					C30.5-231.2,23-230.5,15.7-229.2"/>
			</g>
		</g>
	</g>
	<g id="Group_15" transform="translate(1297 798)">
		<path id="Clip_14-2" class="st0" d="M-809-434.3c-74.6,14.1-123.3,85.1-189.3,122.7l0,0c-9.3,5.3-18.9,9.9-28.7,13.9h454.1
			c-8.4-10.3-16.8-20.5-25.4-30.4l0,0c-47.9-55.8-113.4-108.6-184.5-108.6l0,0C-791.6-436.7-800.4-435.9-809-434.3"/>
		<g>
			<defs>
				<path id="SVGID_9_" d="M-809-434.3c-74.6,14.1-123.3,85.1-189.3,122.7l0,0c-9.3,5.3-18.9,9.9-28.7,13.9h454.1
					c-8.4-10.3-16.8-20.5-25.4-30.4l0,0c-47.9-55.8-113.4-108.6-184.5-108.6l0,0C-791.6-436.7-800.4-435.9-809-434.3"/>
			</defs>
			<clipPath id="SVGID_10_">
				<use xlink:href="#SVGID_9_"  style="overflow:visible;"/>
			</clipPath>
			<g id="Group_15-2" class="st9">
				
					<linearGradient id="Fill_13_1_" gradientUnits="userSpaceOnUse" x1="-1297.6086" y1="-297.2937" x2="-1297.6578" y2="-296.4124" gradientTransform="matrix(1005.356 0 0 -307.8 1303792.5 -91619.2422)">
					<stop  offset="0" style="stop-color:#33FFCC"/>
					<stop  offset="1" style="stop-color:#3F4FFF"/>
				</linearGradient>
				<path id="Fill_13" class="st10" d="M-809-434.3c-74.6,14.1-123.3,85.1-189.3,122.7l0,0c-9.3,5.3-18.9,9.9-28.7,13.9h454.1
					c-8.4-10.3-16.8-20.5-25.4-30.4l0,0c-47.9-55.8-113.4-108.6-184.5-108.6l0,0C-791.6-436.7-800.4-435.9-809-434.3"/>
			</g>
		</g>
	</g>
	<g id="Group_18" transform="translate(1578 1023)">
		<path id="Clip_17-2" class="st0" d="M-1105.9-557.9c-28,5.3-52.4,18.6-75.4,35.2h209c-33-22.6-69.3-37.7-107.3-37.7l0,0
			C-1088.5-560.3-1097.3-559.5-1105.9-557.9"/>
		<g>
			<defs>
				<path id="SVGID_11_" d="M-1105.9-557.9c-28,5.3-52.4,18.6-75.4,35.2h209c-33-22.6-69.3-37.7-107.3-37.7l0,0
					C-1088.5-560.3-1097.3-559.5-1105.9-557.9"/>
			</defs>
			<clipPath id="SVGID_12_">
				<use xlink:href="#SVGID_11_"  style="overflow:visible;"/>
			</clipPath>
			<g id="Group_18-2" class="st11">
				
					<linearGradient id="Fill_16_1_" gradientUnits="userSpaceOnUse" x1="-1580.2832" y1="-519.9606" x2="-1580.1887" y2="-517.1857" gradientTransform="matrix(462.64 0 0 -83.375 729976.875 -43617.4766)">
					<stop  offset="0" style="stop-color:#33FFCC"/>
					<stop  offset="1" style="stop-color:#3F4FFF"/>
				</linearGradient>
				<path id="Fill_16" class="st12" d="M-1105.9-557.9c-28,5.3-52.4,18.6-75.4,35.2h209c-33-22.6-69.3-37.7-107.3-37.7l0,0
					C-1088.5-560.3-1097.3-559.5-1105.9-557.9"/>
			</g>
		</g>
	</g>
	<g id="Group_21" transform="translate(0 204)">
		<path id="Clip_20-2" class="st0" d="M-316.1,289.7c0,3.6,3,6.6,6.6,6.6H30C35.5,252,31,206.1,0.8,175.1l0,0
			c-27.2-27.9-69.2-36.9-97.7-63.5l0,0c-46.8-43.9-43.8-121.4-85-170.5l0,0c-32.3-38.4-82.3-50.3-134.2-52.1l0,0V289.7z"/>
		<g>
			<defs>
				<path id="SVGID_13_" d="M-316.1,289.7c0,3.6,3,6.6,6.6,6.6H30C35.5,252,31,206.1,0.8,175.1l0,0c-27.2-27.9-69.2-36.9-97.7-63.5
					l0,0c-46.8-43.9-43.8-121.4-85-170.5l0,0c-32.3-38.4-82.3-50.3-134.2-52.1l0,0V289.7z"/>
			</defs>
			<clipPath id="SVGID_14_">
				<use xlink:href="#SVGID_13_"  style="overflow:visible;"/>
			</clipPath>
			<g id="Group_21-2" class="st13">
				
					<linearGradient id="Fill_19_1_" gradientUnits="userSpaceOnUse" x1="-0.1699" y1="296.2327" x2="-3.641377e-03" y2="296.3836" gradientTransform="matrix(770.5947 0 0 -902.0229 -117.596 267413.3125)">
					<stop  offset="0" style="stop-color:#0031FF"/>
					<stop  offset="1" style="stop-color:#CF4DFF"/>
				</linearGradient>
				<path id="Fill_19" class="st14" d="M-316.1,289.7c0,3.6,3,6.6,6.6,6.6H30C35.5,252,31,206.1,0.8,175.1l0,0
					c-27.2-27.9-69.2-36.9-97.7-63.5l0,0c-46.8-43.9-43.8-121.4-85-170.5l0,0c-32.3-38.4-82.3-50.3-134.2-52.1l0,0V289.7z"/>
			</g>
		</g>
	</g>
	<g id="Group_24" transform="translate(1 386)">
		<path id="Clip_23-2" class="st0" d="M-316.6,107.7c0,3.6,3,6.6,6.6,6.6h254c-4.2-20.7-12.9-39.7-27.8-55.1l0,0
			c-27.2-28-69.2-36.9-97.6-63.6l0,0c-46.7-43.9-43.8-121.5-85-170.6l0,0c-13.9-16.5-31-28.2-50.2-36.2l0,0V107.7z"/>
		<g>
			<defs>
				<path id="SVGID_15_" d="M-316.6,107.7c0,3.6,3,6.6,6.6,6.6h254c-4.2-20.7-12.9-39.7-27.8-55.1l0,0c-27.2-28-69.2-36.9-97.6-63.6
					l0,0c-46.7-43.9-43.8-121.5-85-170.6l0,0c-13.9-16.5-31-28.2-50.2-36.2l0,0V107.7z"/>
			</defs>
			<clipPath id="SVGID_16_">
				<use xlink:href="#SVGID_15_"  style="overflow:visible;"/>
			</clipPath>
			<g id="Group_24-2" class="st15">
				
					<linearGradient id="Fill_22_1_" gradientUnits="userSpaceOnUse" x1="-1.4786" y1="114.2162" x2="-1.2121" y2="114.4723" gradientTransform="matrix(576.911 0 0 -720.5 489.9171 82456.4766)">
					<stop  offset="0" style="stop-color:#0031FF"/>
					<stop  offset="1" style="stop-color:#CF4DFF"/>
				</linearGradient>
				<path id="Fill_22" class="st16" d="M-316.6,107.7c0,3.6,3,6.6,6.6,6.6h254c-4.2-20.7-12.9-39.7-27.8-55.1l0,0
					c-27.2-28-69.2-36.9-97.6-63.6l0,0c-46.7-43.9-43.8-121.5-85-170.6l0,0c-13.9-16.5-31-28.2-50.2-36.2l0,0V107.7z"/>
			</g>
		</g>
	</g>
	<g id="Group_27" transform="translate(2242 189)">
		<path id="Clip_26-2" class="st0" d="M-1401.4,41.3c-35.9,18.8-73.5,39.1-94.8,73.5l0,0c-25,40.3-22.6,91-31.6,137.5l0,0
			c-3.9,20.2-10.1,39.7-17.3,59h365.5l54.1-17.9V-103C-1217.5-54.9-1309.5-6.8-1401.4,41.3"/>
		<g>
			<defs>
				<path id="SVGID_17_" d="M-1401.4,41.3c-35.9,18.8-73.5,39.1-94.8,73.5l0,0c-25,40.3-22.6,91-31.6,137.5l0,0
					c-3.9,20.2-10.1,39.7-17.3,59h365.5l54.1-17.9V-103C-1217.5-54.9-1309.5-6.8-1401.4,41.3"/>
			</defs>
			<clipPath id="SVGID_18_">
				<use xlink:href="#SVGID_17_"  style="overflow:visible;"/>
			</clipPath>
			<g id="Group_27-2" class="st17">
				
					<linearGradient id="Fill_25_1_" gradientUnits="userSpaceOnUse" x1="-2243.3679" y1="311.42" x2="-2243.167" y2="311.2438" gradientTransform="matrix(928.929 0 0 -917.3 2082516.5 285702.5)">
					<stop  offset="0" style="stop-color:#89BCFF"/>
					<stop  offset="1" style="stop-color:#1F00FF"/>
				</linearGradient>
				<path id="Fill_25" class="st18" d="M-1401.4,41.3c-35.9,18.8-73.5,39.1-94.8,73.5l0,0c-25,40.3-22.6,91-31.6,137.5l0,0
					c-3.9,20.2-10.1,39.7-17.3,59h365.5l54.1-17.9V-103C-1217.5-54.9-1309.5-6.8-1401.4,41.3"/>
			</g>
		</g>
	</g>
	<g id="Group_30" transform="translate(2519 435)">
		<path id="Clip_29-2" class="st0" d="M-1569.4-150.5c-35.9,18.8-73.5,39.1-94.9,73.5l0,0c-25,40.3-22.6,91-31.7,137.5l0,0
			c-0.3,1.6-0.6,3.2-1,4.8h240.3l54.1-17.9v-285.2C-1458.2-208.6-1513.8-179.6-1569.4-150.5"/>
		<g>
			<defs>
				<path id="SVGID_19_" d="M-1569.4-150.5c-35.9,18.8-73.5,39.1-94.9,73.5l0,0c-25,40.3-22.6,91-31.7,137.5l0,0
					c-0.3,1.6-0.6,3.2-1,4.8h240.3l54.1-17.9v-285.2C-1458.2-208.6-1513.8-179.6-1569.4-150.5"/>
			</defs>
			<clipPath id="SVGID_20_">
				<use xlink:href="#SVGID_19_"  style="overflow:visible;"/>
			</clipPath>
			<g id="Group_30-2" class="st19">
				
					<linearGradient id="Fill_28_1_" gradientUnits="userSpaceOnUse" x1="-2521.3398" y1="65.6703" x2="-2520.9785" y2="65.3396" gradientTransform="matrix(651.784 0 0 -670.881 1641745.625 43901.5039)">
					<stop  offset="0" style="stop-color:#89BCFF"/>
					<stop  offset="1" style="stop-color:#1F00FF"/>
				</linearGradient>
				<path id="Fill_28" class="st20" d="M-1569.4-150.5c-35.9,18.8-73.5,39.1-94.9,73.5l0,0c-25,40.3-22.6,91-31.7,137.5l0,0
					c-0.3,1.6-0.6,3.2-1,4.8h240.3l54.1-17.9v-285.2C-1458.2-208.6-1513.8-179.6-1569.4-150.5"/>
			</g>
		</g>
	</g>
	<g id="Group_33" transform="translate(1505)">
		<path id="Clip_32-2" class="st0" d="M-1141,0.7c35.2,61.2,89.1,121.9,159.3,122.6l0,0c65.8,0.6,119.1-51.7,181.5-72.6l0,0
			c64.7-21.7,132.9-8.3,201.3,5.1l0,0C-536.5,68-474,80.2-413.5,66l0,0c8.5-2,16.8-4.5,24.9-7.6l0,0v-51c0-3.6-3-6.6-6.6-6.6H-1141z
			"/>
		<g>
			<defs>
				<path id="SVGID_21_" d="M-1141,0.7c35.2,61.2,89.1,121.9,159.3,122.6l0,0c65.8,0.6,119.1-51.7,181.5-72.6l0,0
					c64.7-21.7,132.9-8.3,201.3,5.1l0,0C-536.5,68-474,80.2-413.5,66l0,0c8.5-2,16.8-4.5,24.9-7.6l0,0v-51c0-3.6-3-6.6-6.6-6.6
					H-1141z"/>
			</defs>
			<clipPath id="SVGID_22_">
				<use xlink:href="#SVGID_21_"  style="overflow:visible;"/>
			</clipPath>
			<g id="Group_33-2" class="st21">
				
					<linearGradient id="Fill_31_1_" gradientUnits="userSpaceOnUse" x1="-1505.3026" y1="500.7639" x2="-1505.3048" y2="499.8821" gradientTransform="matrix(1665.7 0 0 -271.3489 2506620 135760.3281)">
					<stop  offset="0" style="stop-color:#33FFCC"/>
					<stop  offset="1" style="stop-color:#3F4FFF"/>
				</linearGradient>
				<path id="Fill_31" class="st22" d="M-1141,0.7c35.2,61.2,89.1,121.9,159.3,122.6l0,0c65.8,0.6,119.1-51.7,181.5-72.6l0,0
					c64.7-21.7,132.9-8.3,201.3,5.1l0,0C-536.5,68-474,80.2-413.5,66l0,0c8.5-2,16.8-4.5,24.9-7.6l0,0v-51c0-3.6-3-6.6-6.6-6.6
					H-1141z"/>
			</g>
		</g>
	</g>
	<g id="Group_36" transform="translate(1719)">
		<path id="Clip_35-2" class="st0" d="M-1258.4,0.7c26.7,23.2,57.9,38.7,93.1,39l0,0c40.2,0.4,75.7-19.1,111.5-39H-1258.4z"/>
		<g>
			<defs>
				<path id="SVGID_23_" d="M-1258.4,0.7c26.7,23.2,57.9,38.7,93.1,39l0,0c40.2,0.4,75.7-19.1,111.5-39H-1258.4z"/>
			</defs>
			<clipPath id="SVGID_24_">
				<use xlink:href="#SVGID_23_"  style="overflow:visible;"/>
			</clipPath>
			<g id="Group_36-2" class="st23">
				
					<linearGradient id="Fill_34_1_" gradientUnits="userSpaceOnUse" x1="-1721.2596" y1="501.763" x2="-1721.4271" y2="499.5636" gradientTransform="matrix(453.069 0 0 -86.39 778758.5625 43184.5234)">
					<stop  offset="0" style="stop-color:#33FFCC"/>
					<stop  offset="1" style="stop-color:#3F4FFF"/>
				</linearGradient>
				<path id="Fill_34" class="st24" d="M-1258.4,0.7c26.7,23.2,57.9,38.7,93.1,39l0,0c40.2,0.4,75.7-19.1,111.5-39H-1258.4z"/>
			</g>
		</g>
	</g>
</g>
<g>
	<g>
		<g>
			<path class="st25" d="M309.8,231.8c-2.2,6.9-3.8,14.1-4.4,21.5c2-5.3,4.4-10.4,7.4-15.1C311.7,236.1,310.7,234,309.8,231.8"/>
			<path class="st26" d="M307.8,226.1c-1.9,6.9-2.9,14.2-2.9,21.7c0,2,0.1,4,0.2,6c0.1-0.2,0.1-0.4,0.2-0.5
				c0.7-7.4,2.2-14.6,4.4-21.5C309.1,229.9,308.4,228,307.8,226.1"/>
			<path class="st27" d="M372.6,139c22.9,0,43.1,11.4,55.3,28.7c18.8,5,35.4,15.4,47.9,29.6c27.1,6.2,47.3,30.5,47.3,59.5
				c0,25-15,46.5-36.6,55.9l0,0c2,5.2,3.1,10.9,3.1,16.8c0,26.1-21.1,47.2-47.2,47.2c-14,0-26.7-6.1-35.3-15.9
				c-8.5,12.7-22.9,21.1-39.3,21.1c-25.7,0-46.6-20.5-47.2-46.1c-12.7-14.5-20.4-33.4-20.4-54.2c0-9.8,1.7-19.1,4.8-27.8
				c-0.1-2-0.2-4-0.2-6c0-7.5,1-14.8,2.9-21.7c-1.9-6.2-2.9-12.7-2.9-19.5C305,169.3,335.2,139,372.6,139"/>
			<path class="st28" d="M395.4,330.9c0.3,11.1,4.5,21.3,11.2,29.2c0.3,0,0.6,0,0.9,0c0.1,0,0.2-0.1,0.4-0.1
				c4.6-7.3,7.3-15.9,7.3-25.2c0-2.6-0.2-5.2-0.6-7.7C408.4,329,402,330.3,395.4,330.9"/>
			<path class="st29" d="M320.7,335.8c15.1,17.2,37.2,28,61.8,28c8.4,0,16.5-1.3,24.2-3.6c-0.1-0.1-0.1-0.1-0.2-0.2
				c-1.3,0-2.5,0.1-3.8,0.1c-32.8,0-61.8-16.1-79.5-40.8c-1.7,4.8-2.6,10-2.6,15.4C320.7,335.1,320.7,335.5,320.7,335.8"/>
			<path class="st30" d="M323.3,319.3c17.8,24.7,46.8,40.8,79.5,40.8c1.3,0,2.5,0,3.8-0.1c-6.7-7.9-10.9-18.1-11.2-29.2
				c-2.3,0.2-4.7,0.3-7,0.3c-22.9,0-43.6-9.2-58.7-24.1C327,310.8,324.8,314.9,323.3,319.3"/>
			<path class="st31" d="M403.2,303.4c-5,7.5-7.9,16.5-7.9,26.1c0,0.5,0,0.9,0,1.4c6.6-0.6,13-1.9,19.1-3.9
				C413,318,409,309.9,403.2,303.4"/>
			<path class="st29" d="M329.7,307c15.1,14.9,35.8,24.1,58.7,24.1c2.4,0,4.7-0.1,7-0.3c0-0.5,0-0.9,0-1.4c0-9.7,2.9-18.6,7.9-26.1
				c-8.6-9.7-21.3-15.9-35.3-15.9C352.2,287.5,338.2,295.2,329.7,307"/>
			<path class="st32" d="M305.2,254.8c1.7,20.4,10.7,38.7,24.4,52.3c8.6-11.8,22.5-19.6,38.3-19.6c14,0,26.6,6.1,35.3,15.9
				c2.7-4,5.9-7.5,9.6-10.6c-5.4-7.3-9.1-15.9-10.8-25.2c-8.9,4.3-18.9,6.7-29.4,6.7c-26,0-48.5-14.6-59.9-36.1
				c-3,4.7-5.4,9.8-7.4,15.1C305.3,253.8,305.3,254.3,305.2,254.8"/>
			<path class="st33" d="M305,262.3c0,21.3,6.8,41,18.3,57c1.5-4.4,3.7-8.5,6.4-12.3c-13.7-13.6-22.7-31.9-24.4-52.3
				C305.1,257.2,305,259.7,305,262.3"/>
			<path class="st34" d="M300.3,281.6c0,20.8,7.7,39.7,20.4,54.2c0-0.4,0-0.8,0-1.1c0-5.4,0.9-10.6,2.6-15.4
				c-11.5-16.1-18.3-35.8-18.3-57c0-2.5,0.1-5,0.3-7.5c0-0.3,0-0.6-0.1-0.9C302,262.5,300.3,271.9,300.3,281.6"/>
			<path class="st35" d="M295,345l-77.9-77.5V345h-43.3V181.2h17.6l78.1,77.3v-77.3h43.3V345H295z"/>
			<path class="st36" d="M197.3,192.1c22.7,2,43.6,1.4,62.5-2c21.6-5.2,38.9-1.5,51.9,11.1c5.4,5.2,8.1,14.7,8.1,28.4v92h-54.8
				l0.2-61.6c-0.1-4.8-0.3-7.9-0.4-9.2c-0.3-4.2-2.2-7.4-5.7-9.4c-1.9-1-4.4-1.5-7.5-1.5c-5.6,0-9.6,1.6-12.1,4.8
				c-2.6,3.4-4,7.4-4,12.2l-0.2,64.7h-53.7V190.1L197.3,192.1z"/>
			<path class="st37" d="M281,224.8c5.3,0,9.6,4.3,9.6,9.6c0,5.3-4.3,9.6-9.6,9.6c-5.3,0-9.6-4.3-9.6-9.6
				C271.4,229.1,275.7,224.8,281,224.8"/>
			<path class="st38" d="M500.6,262.3c0,18.5-5.1,35.7-14,50.4c21.5-9.4,36.6-30.9,36.6-55.9c0-29-20.2-53.3-47.3-59.5
				C491.3,214.5,500.6,237.3,500.6,262.3"/>
			<path class="st35" d="M620.7,181.2l-55,78.4l60.5,85.4h-52.8L539.3,297L505,345h-52.8l60.5-85.4l-55-78.4h52.8l28.8,40.8
				l28.6-40.8H620.7z"/>
			<path class="st36" d="M579.3,254.6l40,66h-62L547,298.9h-1.3l-11.2,21.6h-62.3l39.2-66l-40.7-65.3h63.6l11.7,22.1h2.2l10.8-22.1
				h60.9L579.3,254.6z"/>
			<path class="st39" d="M464.6,287.7c10.1,5.3,18,14.2,22.1,25c8.9-14.7,14-32,14-50.4c0-25-9.3-47.7-24.7-65
				c-4.4-1-9-1.6-13.8-1.6c-2.8,0-5.6,0.2-8.3,0.6c11.2,14.2,17.8,32.1,17.8,51.5c0,11.8-2.5,23.1-6.9,33.3
				c-0.8,1.8-1.7,3.7-2.6,5.4C463,286.9,463.8,287.3,464.6,287.7"/>
			<path class="st40" d="M407.2,360.8c8.6,9.7,21.3,15.9,35.3,15.9c26.1,0,47.2-21.1,47.2-47.2c0-5.9-1.1-11.6-3.1-16.8
				c-16.3,27.1-45.4,45.6-78.9,47.3C407.6,360.3,407.4,360.5,407.2,360.8"/>
			<path class="st41" d="M456.5,317.6c-9.7,20-27.3,35.4-48.7,42.3c0,0,0,0.1-0.1,0.1c33.5-1.7,62.6-20.2,78.9-47.3
				c-7.5,3.3-15.8,5.1-24.5,5.1C460.2,317.8,458.4,317.8,456.5,317.6"/>
			<path class="st42" d="M414.5,327c0.4,2.5,0.6,5.1,0.6,7.7c0,9.3-2.7,17.9-7.3,25.2c21.4-6.9,39-22.3,48.7-42.3
				c-5.9-0.5-11.6-1.9-16.9-4C432.1,319.4,423.7,324,414.5,327"/>
			<path class="st43" d="M403.2,303.4c5.8,6.5,9.8,14.6,11.3,23.6c9.2-3,17.7-7.6,25.1-13.4c-10.8-4.3-20-11.5-26.8-20.7
				C409.1,295.8,405.9,299.4,403.2,303.4"/>
			<path class="st44" d="M462.2,286.6c-5.5,10.5-13.3,19.7-22.6,27c5.3,2.1,11,3.5,16.9,4c4.4-9.1,7.3-19.2,8-29.9
				C463.8,287.3,463,286.9,462.2,286.6"/>
			<path class="st45" d="M464.6,287.7c-0.8,10.6-3.6,20.7-8,29.9c1.8,0.2,3.7,0.3,5.6,0.3c8.7,0,17-1.8,24.5-5.1
				C482.6,301.9,474.6,293.1,464.6,287.7"/>
			<path class="st40" d="M488.5,168.5c3.2,0,5.8,2.6,5.8,5.8s-2.6,5.8-5.8,5.8c-3.2,0-5.8-2.6-5.8-5.8S485.3,168.5,488.5,168.5"/>
			<path class="st30" d="M444.2,118.1c7.5,0,13.6,6.1,13.6,13.6c0,7.5-6.1,13.6-13.6,13.6c-7.5,0-13.6-6.1-13.6-13.6
				C430.6,124.2,436.7,118.1,444.2,118.1"/>
			<path class="st46" d="M412.8,292.8c6.7,9.2,16,16.5,26.8,20.7c9.3-7.3,17-16.5,22.6-27c-6-2.7-12.6-4.3-19.6-4.3
				C431.3,282.3,420.9,286.2,412.8,292.8"/>
			<path class="st47" d="M442.5,282.3c7,0,13.7,1.5,19.6,4.3c0.9-1.8,1.8-3.6,2.6-5.4c-0.1-23.5-10.2-44.7-26.2-59.6
				c-4.6,20.3-18.3,37.2-36.6,46.1c1.7,9.3,5.4,17.9,10.8,25.2C420.9,286.2,431.3,282.3,442.5,282.3"/>
			<path class="st48" d="M438.6,221.5c16,14.9,26,36.1,26.2,59.6c4.5-10.2,6.9-21.5,6.9-33.3c0-19.5-6.7-37.4-17.8-51.5
				c-4.8,0.7-9.5,1.9-13.9,3.6c0.2,2.2,0.3,4.5,0.3,6.8C440.3,211.7,439.7,216.7,438.6,221.5"/>
			<path class="st47" d="M422.9,210c-13.3,11.2-21.8,28-21.8,46.8c0,3.7,0.3,7.3,0.9,10.8c18.3-8.9,32-25.7,36.6-46.1
				C433.9,217.1,428.6,213.2,422.9,210"/>
			<path class="st49" d="M439.9,199.9c-6.2,2.4-12,5.9-17,10.1c5.7,3.2,11,7.1,15.7,11.5c1.1-4.8,1.6-9.8,1.6-14.9
				C440.3,204.3,440.2,202.1,439.9,199.9"/>
			<path class="st50" d="M433.9,178c3.2,6.8,5.2,14.1,6,21.9c4.4-1.7,9.1-2.9,13.9-3.6C448.3,189.1,441.5,183,433.9,178"/>
			<path class="st38" d="M433.9,178c7.6,5,14.3,11.1,19.9,18.3c2.7-0.4,5.5-0.6,8.3-0.6c4.7,0,9.4,0.5,13.8,1.6
				c-12.6-14.1-29.2-24.6-48-29.6C430.2,170.9,432.2,174.4,433.9,178"/>
			<path class="st51" d="M395.3,164.7c14.2,1.2,27.4,5.9,38.7,13.3c-1.7-3.6-3.7-7.1-6-10.3c-8-2.1-16.5-3.3-25.2-3.3
				C400.3,164.4,397.8,164.5,395.3,164.7"/>
			<path class="st37" d="M372.6,139c-37.4,0-67.7,30.3-67.7,67.7c0,6.8,1,13.3,2.9,19.5c9.5-35.5,42-61.7,80.5-61.7
				c2.3,0,4.7,0.1,6.9,0.3c2.5-0.2,5-0.3,7.5-0.3c8.7,0,17.1,1.1,25.2,3.3C415.7,150.3,395.5,139,372.6,139"/>
			<path class="st52" d="M388.3,164.4c-38.5,0-71,26.1-80.5,61.7c0.6,1.9,1.2,3.8,2,5.7c12.1-36.8,45.4-64,85.5-67.1
				C393,164.5,390.7,164.4,388.3,164.4"/>
			<path class="st47" d="M395.3,164.7c-40.1,3-73.4,30.2-85.5,67.1c0.9,2.2,1.9,4.3,3,6.4c14.5-23.3,40.4-38.8,69.8-38.8
				c14.7,0,28.4,3.8,40.3,10.6c5.1-4.2,10.8-7.7,17-10.1c-0.8-7.7-2.8-15.1-6-21.9C422.6,170.6,409.5,165.9,395.3,164.7"/>
			<path class="st32" d="M382.6,199.4c-29.5,0-55.3,15.5-69.8,38.8c11.3,21.5,33.9,36.1,59.9,36.1c10.5,0,20.5-2.4,29.4-6.7
				c-0.6-3.5-0.9-7.1-0.9-10.8c0-18.8,8.5-35.6,21.8-46.8C411,203.3,397.2,199.4,382.6,199.4"/>
			<path class="st53" d="M407.2,181.2c45.5,0,82.5,36.9,82.5,82.1c0,45.2-37,81.7-82.5,81.7c-45.5,0-82.3-36.5-82.3-81.7
				C325,218.1,361.7,181.2,407.2,181.2z M407.2,224c-21.6,0-39.2,17.5-39.2,39.1c0,21.4,17.6,39.1,39.2,39.1
				c21.8,0,39.4-17.7,39.4-39.1C446.6,241.5,429,224,407.2,224z"/>
			<path class="st27" d="M299.1,332.1c4,0,7.2,3.2,7.2,7.2c0,4-3.2,7.2-7.2,7.2c-4,0-7.2-3.2-7.2-7.2
				C291.8,335.3,295.1,332.1,299.1,332.1"/>
			<path class="st54" d="M507.4,329.6c3.8,0,6.8,3,6.8,6.8c0,3.8-3,6.8-6.8,6.8c-3.8,0-6.8-3-6.8-6.8
				C500.6,332.6,503.7,329.6,507.4,329.6"/>
		</g>
	</g>
	<g>
		<path class="st36" d="M187,181h-5.3v-15.3h5.3V181z"/>
		<path class="st36" d="M204.7,181h-4.1l0-0.1l-5.4-6v6.1h-5.3v-15.3h4.2l5.4,6.1v-6.1h5.3V181z"/>
		<path class="st36" d="M216.5,170.2V181h-5.3v-10.8H207v-4.5h13.7v4.5H216.5z"/>
		<path class="st36" d="M228.3,171.3h5.8v4h-5.8v1.4h6.9v4.3h-12.2v-15.3h12.2v4.3h-6.9V171.3z"/>
		<path class="st36" d="M243.1,177.4v3.6h-5.3v-15.3h7.1c4.5,0,7,2,7,5.7c0,1.9-0.8,3.5-2.3,4.6l3.3,4.9h-6.3l-2.2-3.6H243.1z
			 M245,172.8c1,0,1.7-0.6,1.7-1.4c0-0.8-0.7-1.3-1.7-1.3h-1.9v2.7H245z"/>
		<path class="st36" d="M269.7,181h-4.1l0-0.1l-5.4-6v6.1h-5.3v-15.3h4.2l5.4,6.1v-6.1h5.3V181z"/>
		<path class="st36" d="M277.8,171.3h5.8v4h-5.8v1.4h6.9v4.3h-12.2v-15.3h12.2v4.3h-6.9V171.3z"/>
		<path class="st36" d="M296.1,170.2V181h-5.3v-10.8h-4.2v-4.5h13.7v4.5H296.1z"/>
	</g>
</g>
</svg>
