<?xml version="1.0" encoding="utf-8"?>
<!-- Generator: Adobe Illustrator 24.3.0, SVG Export Plug-In . SVG Version: 6.00 Build 0)  -->
<svg version="1.1" id="Layer_1" xmlns="http://www.w3.org/2000/svg" xmlns:xlink="http://www.w3.org/1999/xlink" x="0px" y="0px"
	 viewBox="0 0 800 500" style="enable-background:new 0 0 800 500;" xml:space="preserve">
<style type="text/css">
	.st0{fill:#1E1E28;}
	.st1{fill-rule:evenodd;clip-rule:evenodd;fill:#75787B;}
	.st2{fill-rule:evenodd;clip-rule:evenodd;fill:#DBE442;}
	.st3{fill-rule:evenodd;clip-rule:evenodd;fill:#59CBE8;}
	.st4{fill-rule:evenodd;clip-rule:evenodd;fill:#E4002B;}
	.st5{fill-rule:evenodd;clip-rule:evenodd;fill:#FFBF3F;}
	.st6{fill-rule:evenodd;clip-rule:evenodd;fill:#FFFFFF;}
	.st7{fill-rule:evenodd;clip-rule:evenodd;fill:#8246AF;}
	.st8{fill-rule:evenodd;clip-rule:evenodd;fill:#F04E98;}
</style>
<rect class="st0" width="800" height="500"/>
<g>
	<path id="Fill-1" class="st1" d="M711.9,236v3.6h2.7c1.3,0,2.7-0.4,2.7-1.8c0-1.8-0.9-2.2-2.7-2.2C713.3,236,712.4,236,711.9,236
		 M720.9,247.6h-3.1l-2.2-4.9c-0.4-0.4-0.4-0.4-0.9-0.4h-2.7v5.4h-2.7v-13.8c2.2,0,3.6,0,5.4,0c3.1,0,5.8,0.9,5.8,4.5
		c0,1.8-0.9,3.1-2.2,3.6C719.1,243.6,720.4,247.1,720.9,247.6 M703,240.4c0,5.8,4.9,10.7,11.6,10.7c6.3,0,11.6-4.9,11.6-10.7
		c0-5.8-4.9-10.7-11.6-10.7C707.9,229.7,703,234.6,703,240.4 M700.3,240.4c0-7.6,6.3-13.4,13.8-13.4c7.6,0,13.8,5.8,13.8,13.4
		c0,7.1-6.3,13.4-13.8,13.4C706.6,253.8,700.3,247.6,700.3,240.4"/>
	<g id="Clip-4">
	</g>
	<polygon id="Fill-3" class="st2" points="541.3,290.5 557.9,290.5 557.9,202.9 541.3,202.9 	"/>
	<path id="Fill-5" class="st3" d="M504.7,290.9c-7.1,0-11.2-1.8-15.2-7.6h-0.4v30.8h-17v-85.7h14.3l0.9,7.1h0.4
		c4.5-6.3,9.8-8.5,17-8.5c18.3,0,25.9,14.7,25.9,31.3C531.1,275.7,523.9,290.9,504.7,290.9 M500.7,241.3c-7.1,0-11.6,2.7-11.6,10.7
		v13.4c0,8.5,2.7,13.8,11.6,13.8c11.2,0,12.5-10.3,12.5-19.6C513.2,249.8,511.9,241.3,500.7,241.3"/>
	<path id="Fill-6" class="st4" d="M665,292.2c-8,20.5-12.1,25-26.8,25c-2.2,0-4.9,0-9.4-0.4v-14.3c0.9,0,3.1,0.4,6.7,0.4
		c6.7,0,8-1.8,10.3-7.1l2.7-7.1l-23.7-59.8h18.8l14.3,42.4h0.4l13.8-42.4h18.3L665,292.2z"/>
	<path id="Fill-7" class="st5" d="M604.7,274.4c-4,2.7-8.5,4.9-13.8,4.9c-4.9,0-8-3.1-8-8c0-10.7,13.8-10.7,21.4-10.7v13.8H604.7z
		 M621.7,274.8v-2.7l0,0v-20.5c0-17.4-6.7-24.6-24.1-24.6c-10.7,0-19.6,2.2-29,7.1l5.4,11.6c6.7-3.6,14.3-6.3,22.3-6.3
		c6.3,0,8.9,1.8,8.9,7.6v2.7c-15.2,0-38,1.8-38,21.9c0,11.6,8,18.3,19.6,18.3c7.6,0,14.3-2.7,20.1-7.1c0,0.4,0,0.9,0,0.9
		c1.8,5.8,12.1,6.3,19.2,5.8l0.4-13C623.5,277.1,621.7,276.6,621.7,274.8L621.7,274.8z"/>
	<path id="Fill-8" class="st6" d="M293.9,290.5c-21,0-31.3-13-31.3-31.7c0-17.9,8.9-31.7,31.3-31.7c20.5,0,31.3,12.1,31.3,31.7
		C325.2,277.5,315.4,290.5,293.9,290.5 M294.4,241.3c-10.7,0-13.8,6.3-13.8,18.3s3.6,18.8,14.3,18.8c10.3,0,13.8-6.7,13.8-18.8
		S305.1,241.3,294.4,241.3"/>
	<polygon id="Fill-9" class="st6" points="209.5,208.3 209.5,223.5 232.3,223.5 232.3,290.5 250.2,290.5 250.2,223.5 273,223.5 
		273,208.3 	"/>
	<path id="Fill-10" class="st6" d="M366.3,276.2c-8.5,0-9.4-0.9-9.4-6.3c0-0.4,0-0.4,0-0.9v-27.2h13.8v-13.8h-13.8v-16.1h-16.5v16.1
		h-9.8v13.8h9.4v29c0,14.7,4,19.2,20.5,19.2c3.1,0,5.8-0.4,10.3-0.9v-13.8C369.4,276.2,368.5,276.2,366.3,276.2"/>
	<polygon id="Fill-11" class="st6" points="445.8,290.5 462.3,290.5 462.3,202.9 445.8,202.9 	"/>
	<path id="Fill-12" class="st6" d="M415.4,274.4c-4,2.7-8.5,4.9-13.8,4.9c-4.9,0-8-3.1-8-8c0-10.7,13.8-10.7,21.4-10.7v13.8H415.4z
		 M431.9,274.8v-2.7l0,0v-20.5c0-17.4-6.7-24.6-24.1-24.6c-10.7,0-19.6,2.2-29,7.1l5.4,11.6c6.7-3.6,14.3-6.3,22.3-6.3
		c6.3,0,8.9,1.8,8.9,7.6v2.7c-15.2,0-38,1.8-38,21.9c0,11.6,8,18.3,19.6,18.3c7.6,0,14.3-2.7,20.1-7.1c0,0.4,0,0.9,0,0.9
		c1.8,5.8,12.1,6.3,19.2,5.8l0.4-13C433.7,277.1,431.9,276.6,431.9,274.8L431.9,274.8z"/>
	<path id="Fill-13" class="st5" d="M107.3,205.6c2.2-1.3,2.2-3.6,0-4.9l-30.8-17.4c-2.7-1.3-4.5,0-4.5,2.7v34.4
		c0,2.7,1.8,3.6,4.5,2.7L107.3,205.6z"/>
	<path id="Fill-14" class="st7" d="M107.3,249.8c2.2-1.3,2.2-3.6,0-4.9l-30.8-17c-2.7-1.3-4.5-0.4-4.5,2.2v34.4
		c0,2.7,1.8,3.6,4.5,2.2L107.3,249.8z"/>
	<path id="Fill-15" class="st8" d="M107.3,296.7c2.2-1.3,2.2-3.6,0-4.9l-30.8-17c-2.2-1.3-4.5-0.4-4.5,2.2v34.4
		c0,2.7,1.8,3.6,4.5,2.2L107.3,296.7z"/>
	<path id="Fill-16" class="st3" d="M111.3,243.1c0,2.7,1.8,3.6,4.5,2.2l30.8-17.4c2.2-1.3,2.2-3.6,0-4.9l-30.8-17
		c-2.2-1.3-4.5-0.4-4.5,2.2V243.1z"/>
	<path id="Fill-17" class="st2" d="M111.3,288.7c0,2.7,1.8,3.6,4.5,2.2l30.8-17.4c2.2-1.3,2.2-3.6,0-4.9l-30.8-17.4
		c-2.2-1.3-4.5-0.4-4.5,2.2C111.3,253.4,111.3,288.7,111.3,288.7z"/>
	<path id="Fill-18" class="st4" d="M151.9,264.6c0,2.7,1.8,3.6,4.5,2.2l30.8-17.4c2.2-1.3,2.2-3.6,0-4.9L156.4,227
		c-2.2-1.3-4.5-0.4-4.5,2.2V264.6z"/>
</g>
</svg>
